<svg width="255" height="183" viewBox="0 0 255 183" fill="none" xmlns="http://www.w3.org/2000/svg">
<g clip-path="url(#clip0)">
<path d="M87.1222 96.5053L86.5245 100.214L60.271 96.43L60.8687 92.7212L87.1222 96.5053Z" fill="#E0E0E0"/>
<path d="M73.9012 83.2749L77.6664 83.8162L73.4917 109.665L69.7217 109.119L73.9012 83.2749Z" fill="#E0E0E0"/>
<path d="M228.339 98.0773C228.377 98.1337 223.939 101.169 218.422 104.855C212.906 108.54 208.407 111.486 208.369 111.444C208.331 111.402 212.774 108.356 218.286 104.667C223.797 100.977 228.302 97.9972 228.339 98.0773Z" fill="#E0E0E0"/>
<path d="M244.648 93.959C244.686 94.0155 237.301 99.0233 228.175 105.137C219.049 111.251 211.579 116.174 211.542 116.118C211.504 116.061 218.889 111.053 228.015 104.935C237.141 98.8162 244.596 93.9025 244.648 93.959Z" fill="#E0E0E0"/>
<path d="M247.919 98.8446C247.957 98.9011 240.572 103.909 231.446 110.028C222.32 116.146 214.85 121.06 214.813 121.003C214.775 120.947 222.136 115.963 231.286 109.844C240.435 103.725 247.891 98.7929 247.919 98.8446Z" fill="#E0E0E0"/>
<path d="M251.185 103.725C251.223 103.782 243.834 108.79 234.712 114.908C225.591 121.027 218.117 125.941 218.079 125.884C218.041 125.828 225.426 120.825 234.552 114.701C243.678 108.578 251.152 103.678 251.185 103.725Z" fill="#E0E0E0"/>
<path d="M254.48 108.625C254.518 108.681 247.133 113.685 238.007 119.803C228.881 125.922 221.411 130.835 221.374 130.784C221.336 130.732 228.721 125.719 237.847 119.601C246.973 113.482 254.419 108.569 254.48 108.625Z" fill="#E0E0E0"/>
<path d="M271.269 171.891C271.269 171.957 210.436 172.013 135.408 172.013C60.3795 172.013 -0.462891 171.971 -0.462891 171.891C-0.462891 171.811 60.3606 171.769 135.408 171.769C210.454 171.769 271.269 171.82 271.269 171.891Z" fill="#263238"/>
<path d="M14.5795 142.414C15.3752 142.471 16.1512 142.688 16.8612 143.052C17.5712 143.416 18.2006 143.919 18.7119 144.532C19.7284 145.764 20.4482 147.213 20.8157 148.768C21.6111 151.742 21.1217 155.258 20.2745 158.219C17.0551 157.066 15.0642 153.63 14.1559 151.822C12.7439 148.97 11.9014 142.946 14.5654 142.409" fill="#F2006C"/>
<path d="M24.9106 161.829C24.4272 161.079 24.1508 160.215 24.1094 159.324C24.0681 158.433 24.2633 157.546 24.6753 156.755C25.1002 155.971 25.6769 155.28 26.3719 154.722C27.0669 154.163 27.8661 153.749 28.723 153.503C29.509 153.258 30.4221 153.159 31.1045 153.616C31.4122 153.849 31.6518 154.159 31.7983 154.516C31.9448 154.873 31.9929 155.263 31.9376 155.644C31.8141 156.409 31.4892 157.127 30.9963 157.725C29.429 159.847 27.5275 161.612 24.8777 161.829" fill="#F2006C"/>
<path d="M25.268 171.774C25.1982 171.574 25.1493 171.367 25.1221 171.157C25.0374 170.715 24.9244 170.145 24.7879 169.463C24.3655 167.594 24.2478 165.67 24.4397 163.763C24.6616 161.848 25.3911 160.026 26.5529 158.487C26.9079 158.027 27.3172 157.611 27.7719 157.249C27.8955 157.151 28.0243 157.06 28.1579 156.976C28.2003 156.941 28.248 156.912 28.2991 156.892C27.7037 157.4 27.1598 157.966 26.6753 158.581C25.5748 160.122 24.8818 161.916 24.6609 163.796C24.3596 165.989 24.7315 167.999 24.948 169.444C25.0609 170.164 25.1551 170.748 25.2068 171.153C25.2439 171.358 25.2644 171.566 25.268 171.774Z" fill="#263238"/>
<path d="M15.615 146.947C15.6687 147.021 15.713 147.102 15.7468 147.187C15.8315 147.375 15.9445 147.61 16.0762 147.907C16.3633 148.533 16.7634 149.441 17.2482 150.566C18.2177 152.821 19.5168 155.955 20.8723 159.448C22.2278 162.94 23.3809 166.126 24.1669 168.447C24.5717 169.604 24.887 170.546 25.1082 171.2C25.2071 171.511 25.2824 171.76 25.3436 171.953C25.3771 172.039 25.4008 172.129 25.4142 172.221C25.3664 172.141 25.3285 172.056 25.3012 171.967C25.2306 171.779 25.1412 171.534 25.0235 171.228L24.0304 168.498C23.1879 166.197 22.0113 163.015 20.6605 159.528C19.3097 156.04 18.0295 152.896 17.0976 150.627C16.6269 149.512 16.2645 148.604 15.9962 147.94C15.8739 147.639 15.775 147.399 15.6997 147.206C15.6644 147.122 15.636 147.035 15.615 146.947Z" fill="#263238"/>
<path d="M21.4417 165.194C20.4732 163.581 19.1349 162.222 17.5374 161.23C15.9398 160.237 14.1289 159.639 12.2544 159.484C11.3131 159.419 10.1552 159.579 9.73165 160.426C9.30805 161.273 9.87285 162.308 10.5224 162.996C11.9024 164.439 13.6789 165.442 15.6279 165.878C17.577 166.313 19.6114 166.162 21.4746 165.443" fill="#F2006C"/>
<path d="M13.7041 162.036C13.9037 162.026 14.1037 162.034 14.3019 162.059C14.5339 162.072 14.765 162.099 14.9937 162.139C15.262 162.191 15.5774 162.219 15.9068 162.314C16.2751 162.391 16.6382 162.492 16.994 162.615C17.4063 162.747 17.8103 162.904 18.2036 163.085C19.1085 163.491 19.9643 163.998 20.7546 164.596C21.5358 165.209 22.2434 165.91 22.8632 166.686C23.1308 167.024 23.3776 167.377 23.6021 167.745C23.8051 168.063 23.9905 168.391 24.1575 168.729C24.2989 169.004 24.4246 169.287 24.534 169.576C24.6284 169.79 24.7086 170.01 24.7741 170.235C24.8438 170.422 24.8958 170.616 24.9294 170.814C24.8776 170.814 24.6517 170.004 24.0163 168.799C23.8433 168.476 23.6532 168.161 23.4468 167.858C23.2174 167.501 22.9692 167.157 22.7032 166.827C21.4721 165.306 19.9022 164.094 18.1189 163.288C17.7094 163.109 17.3188 162.94 16.9376 162.817C16.5876 162.69 16.2309 162.581 15.8692 162.492C14.5513 162.13 13.6994 162.088 13.7041 162.036Z" fill="#263238"/>
<path d="M113.744 60.2322L84.6289 54.3357L92.2321 16.859L113.853 21.236L119.899 29.8965L113.744 60.2322Z" fill="#EBEBEB"/>
<path d="M99.2554 44.0968L99.3613 43.2378C99.523 41.4436 100.522 39.6553 102.6 38.0634C104.469 36.6529 105.564 35.5811 105.868 34.1116C106.21 32.4558 105.366 31.1265 103.26 30.6496C102.052 30.3903 100.799 30.4924 99.6653 30.9425L99.2839 28.7297C100.56 28.1842 102.568 28.067 104.344 28.4473C108.2 29.2623 109.467 31.9334 108.962 34.4C108.506 36.6069 106.904 37.9278 104.912 39.439C103.086 40.8147 102.256 42.1296 102.014 43.8039L101.873 44.6562L99.2554 44.0968ZM97.5775 48.4827C97.8258 47.2824 98.8378 46.6143 100.011 46.8631C101.184 47.1119 101.817 48.1224 101.568 49.3253C101.332 50.4606 100.381 51.1725 99.1408 50.9112C97.9565 50.6621 97.3332 49.6159 97.567 48.4799L97.5775 48.4827Z" fill="#DBDBDB"/>
<path d="M15.3841 64.9139L19.8884 86.7291L22.7876 83.9004L27.7202 87.4209L31.4902 82.7379L39.9432 88.8847L47.1679 76.8028L55.2256 81.5235L58.4214 77.1182L68.6535 82.8838L71.7317 76.2898L64.5588 41.5503L26.1058 49.4903L15.3841 64.9139Z" fill="#EBEBEB"/>
<path d="M20.8484 91.0879L27.4518 123.093L79.248 112.399L72.6917 80.6533L69.6136 87.2426L59.3767 81.477L56.1856 85.8824L48.1232 81.1663L40.9033 93.2482L32.4455 87.1014L28.6802 91.7797L23.743 88.2639L20.8484 91.0879Z" fill="#EBEBEB"/>
<path d="M99.6326 75.2685L82.9712 160.835L80.8062 172.036L191.882 171.5C196.871 171.476 201.295 167.047 202.891 160.468L222.593 79.688C223.812 74.6943 221.138 69.4982 217.354 69.5029L104.904 69.6206C102.457 69.6159 100.263 71.9315 99.6326 75.2685Z" fill="#F2006C"/>
<g opacity="0.5">
<path opacity="0.5" d="M99.6326 75.2685L82.9712 160.835L80.8062 172.036L191.882 171.5C196.871 171.476 201.295 167.047 202.891 160.468L222.593 79.688C223.812 74.6943 221.138 69.4982 217.354 69.5029L104.904 69.6206C102.457 69.6159 100.263 71.9315 99.6326 75.2685Z" fill="black"/>
</g>
<path d="M181.24 155.027L169.474 60.231C169.003 56.3481 165.902 53.4488 162.245 53.4629L136.452 53.543C135.494 53.5538 134.548 53.7596 133.671 54.148C132.795 54.5364 132.007 55.0992 131.355 55.8021L119.118 68.8253L47.3891 69.2113C43.0072 69.2348 39.6373 73.386 40.2162 78.0456L51.1403 165.659C51.6109 169.537 54.7126 172.432 58.3602 172.427L183.391 172.178C197.314 172.465 198.645 168.356 198.645 168.356C182.662 171.891 181.24 155.05 181.24 155.027Z" fill="#F2006C"/>
<path d="M90.4502 118.853C89.2618 118.849 88.1712 118.566 87.1786 118.005C86.186 117.444 85.4002 116.672 84.8212 115.687C84.2424 114.691 83.9549 113.568 83.959 112.319C83.963 111.082 84.2576 109.974 84.8429 108.993C85.4282 108.001 86.219 107.227 87.2152 106.672C88.2114 106.118 89.3038 105.842 90.4923 105.846C91.6928 105.85 92.7834 106.132 93.7639 106.694C94.7565 107.255 95.5362 108.033 96.103 109.03C96.6819 110.014 96.9694 111.124 96.9654 112.361C96.9613 113.61 96.6667 114.731 96.0813 115.724C95.5082 116.704 94.7235 117.472 93.7273 118.026C92.731 118.581 91.6387 118.856 90.4502 118.853ZM90.4576 116.579C91.2216 116.581 91.8952 116.414 92.4784 116.076C93.0616 115.726 93.518 115.23 93.8475 114.589C94.177 113.947 94.3432 113.202 94.3459 112.353C94.3486 111.504 94.1873 110.764 93.8619 110.132C93.5366 109.488 93.0834 108.995 92.5024 108.654C91.9214 108.313 91.2489 108.141 90.4848 108.138C89.7208 108.136 89.0412 108.303 88.4458 108.641C87.8626 108.979 87.4063 109.468 87.0768 110.11C86.7473 110.74 86.5812 111.479 86.5784 112.328C86.5757 113.177 86.737 113.923 87.0624 114.567C87.3877 115.211 87.8409 115.709 88.4218 116.063C89.015 116.404 89.6936 116.576 90.4576 116.579ZM102.934 118.929C101.964 118.926 101.092 118.711 100.317 118.284C99.5423 117.845 98.9319 117.231 98.4857 116.441C98.0517 115.651 97.8364 114.741 97.8397 113.71C97.843 112.679 98.0703 111.771 98.5216 110.984C98.985 110.197 99.6115 109.593 100.401 109.171C101.191 108.737 102.071 108.521 103.041 108.524C104.011 108.528 104.89 108.749 105.676 109.188C106.463 109.615 107.08 110.223 107.526 111.013C107.984 111.803 108.212 112.713 108.208 113.744C108.205 114.775 107.966 115.683 107.49 116.47C107.027 117.257 106.394 117.867 105.592 118.301C104.803 118.723 103.917 118.932 102.934 118.929ZM102.942 116.71C103.402 116.711 103.833 116.604 104.234 116.387C104.647 116.158 104.976 115.819 105.22 115.371C105.464 114.923 105.587 114.378 105.589 113.735C105.592 112.777 105.34 112.043 104.832 111.532C104.337 111.009 103.725 110.746 102.997 110.744C102.27 110.741 101.656 111 101.158 111.52C100.671 112.028 100.426 112.76 100.423 113.719C100.42 114.677 100.654 115.417 101.125 115.94C101.608 116.451 102.214 116.708 102.942 116.71ZM112.255 110.173C112.584 109.713 113.034 109.333 113.605 109.031C114.188 108.718 114.85 108.563 115.59 108.565C116.451 108.568 117.226 108.782 117.916 109.209C118.618 109.636 119.168 110.244 119.565 111.034C119.975 111.811 120.179 112.715 120.175 113.746C120.172 114.777 119.963 115.692 119.548 116.491C119.145 117.278 118.591 117.888 117.887 118.323C117.194 118.757 116.417 118.973 115.556 118.97C114.816 118.968 114.162 118.814 113.593 118.509C113.036 118.204 112.582 117.82 112.232 117.359L112.212 123.598L109.665 123.59L109.713 108.71L112.26 108.718L112.255 110.173ZM117.574 113.738C117.576 113.131 117.45 112.609 117.197 112.172C116.956 111.722 116.63 111.382 116.218 111.15C115.819 110.918 115.382 110.802 114.909 110.8C114.449 110.799 114.012 110.919 113.598 111.16C113.198 111.389 112.869 111.727 112.613 112.175C112.369 112.623 112.246 113.15 112.244 113.757C112.242 114.363 112.362 114.891 112.603 115.341C112.856 115.79 113.182 116.137 113.582 116.381C113.993 116.612 114.429 116.729 114.89 116.73C115.363 116.732 115.8 116.612 116.201 116.371C116.614 116.13 116.943 115.785 117.187 115.337C117.443 114.889 117.572 114.356 117.574 113.738ZM125.486 119.002C124.661 118.999 123.922 118.852 123.268 118.558C122.614 118.253 122.094 117.845 121.708 117.335C121.333 116.824 121.129 116.259 121.095 115.641L123.66 115.649C123.707 116.037 123.894 116.359 124.22 116.615C124.559 116.871 124.977 117 125.474 117.001C125.959 117.003 126.336 116.907 126.603 116.714C126.883 116.521 127.023 116.272 127.024 115.969C127.025 115.642 126.856 115.399 126.517 115.24C126.19 115.069 125.663 114.886 124.936 114.689C124.185 114.505 123.567 114.315 123.082 114.119C122.61 113.924 122.199 113.625 121.848 113.224C121.51 112.823 121.342 112.282 121.344 111.603C121.346 111.045 121.505 110.537 121.822 110.077C122.151 109.617 122.613 109.255 123.208 108.99C123.815 108.725 124.525 108.594 125.338 108.596C126.538 108.6 127.495 108.907 128.209 109.515C128.923 110.112 129.314 110.92 129.384 111.938L126.946 111.931C126.911 111.53 126.742 111.214 126.44 110.983C126.149 110.74 125.756 110.617 125.258 110.615C124.798 110.614 124.44 110.698 124.184 110.867C123.941 111.036 123.819 111.272 123.818 111.575C123.817 111.914 123.986 112.176 124.325 112.359C124.664 112.53 125.191 112.707 125.906 112.891C126.633 113.076 127.233 113.266 127.705 113.461C128.177 113.657 128.583 113.961 128.921 114.375C129.271 114.776 129.451 115.31 129.461 115.977C129.46 116.559 129.294 117.08 128.965 117.54C128.648 118 128.186 118.362 127.579 118.627C126.984 118.88 126.286 119.005 125.486 119.002ZM134.498 105.952L134.178 114.737L132.032 114.73L131.751 105.943L134.498 105.952ZM133.146 118.991C132.685 118.989 132.303 118.848 132.001 118.568C131.711 118.276 131.567 117.918 131.568 117.494C131.569 117.069 131.716 116.718 132.008 116.44C132.312 116.15 132.695 116.006 133.155 116.007C133.604 116.009 133.973 116.155 134.264 116.447C134.554 116.727 134.698 117.079 134.697 117.504C134.695 117.928 134.549 118.286 134.257 118.576C133.965 118.854 133.594 118.992 133.146 118.991ZM140.549 105.972L140.23 114.757L138.083 114.75L137.802 105.963L140.549 105.972ZM139.197 119.01C138.736 119.009 138.355 118.868 138.052 118.588C137.762 118.296 137.618 117.938 137.619 117.513C137.621 117.089 137.767 116.738 138.059 116.46C138.363 116.17 138.746 116.025 139.207 116.027C139.655 116.028 140.025 116.175 140.315 116.467C140.605 116.747 140.75 117.099 140.748 117.523C140.747 117.948 140.6 118.305 140.308 118.595C140.016 118.873 139.646 119.012 139.197 119.01ZM146.6 105.991L146.281 114.776L144.134 114.769L143.854 105.982L146.6 105.991ZM145.248 119.03C144.788 119.028 144.406 118.887 144.104 118.608C143.814 118.316 143.669 117.957 143.671 117.533C143.672 117.108 143.819 116.757 144.111 116.479C144.415 116.189 144.797 116.045 145.258 116.046C145.707 116.048 146.076 116.195 146.366 116.487C146.657 116.766 146.801 117.119 146.8 117.543C146.798 117.967 146.651 118.325 146.359 118.615C146.068 118.893 145.697 119.031 145.248 119.03Z" fill="white"/>
<path d="M87.9009 140.421L86.9352 140.415L83.0887 134.501L83.0516 140.391L82.086 140.385L82.1327 132.978L83.0983 132.984L86.9449 138.887L86.982 133.009L87.9476 133.015L87.9009 140.421ZM92.5202 140.525C91.834 140.52 91.209 140.357 90.6451 140.035C90.0812 139.706 89.6348 139.254 89.306 138.679C88.9842 138.097 88.8256 137.445 88.8302 136.724C88.8347 136.002 89.0015 135.356 89.3305 134.785C89.6667 134.207 90.1187 133.761 90.6867 133.446C91.2546 133.124 91.8817 132.965 92.5679 132.97C93.2612 132.974 93.8897 133.141 94.4536 133.47C95.0175 133.791 95.4604 134.24 95.7822 134.815C96.104 135.39 96.2626 136.042 96.258 136.771C96.2534 137.499 96.0866 138.149 95.7575 138.72C95.4285 139.291 94.98 139.737 94.412 140.059C93.8441 140.374 93.2135 140.529 92.5202 140.525ZM92.5255 139.686C93.0419 139.69 93.506 139.572 93.9179 139.334C94.3367 139.096 94.6643 138.755 94.9006 138.311C95.1439 137.867 95.2674 137.351 95.2711 136.764C95.2749 136.17 95.1579 135.653 94.9201 135.213C94.6895 134.766 94.3698 134.421 93.961 134.177C93.5522 133.934 93.0861 133.811 92.5626 133.808C92.0391 133.804 91.5715 133.922 91.1597 134.16C90.7479 134.398 90.4203 134.739 90.177 135.183C89.9407 135.62 89.8208 136.136 89.817 136.73C89.8133 137.317 89.9268 137.834 90.1574 138.281C90.3951 138.728 90.7183 139.074 91.1271 139.317C91.543 139.56 92.0091 139.683 92.5255 139.686ZM101.929 133.113C102.735 133.119 103.431 133.275 104.016 133.583C104.609 133.884 105.059 134.315 105.367 134.875C105.681 135.436 105.836 136.095 105.832 136.852C105.827 137.609 105.663 138.266 105.342 138.823C105.027 139.373 104.571 139.794 103.975 140.088C103.386 140.374 102.689 140.515 101.882 140.509L99.5796 140.495L99.6263 133.099L101.929 133.113ZM101.887 139.714C102.842 139.72 103.572 139.473 104.078 138.974C104.583 138.468 104.839 137.759 104.845 136.846C104.851 135.926 104.6 135.207 104.094 134.687C103.595 134.167 102.872 133.905 101.924 133.899L100.587 133.89L100.55 139.705L101.887 139.714ZM111.085 138.923L107.859 138.902L107.254 140.543L106.236 140.537L108.956 133.2L110.07 133.207L112.687 140.578L111.669 140.571L111.085 138.923ZM110.814 138.136L109.501 134.392L108.14 138.119L110.814 138.136ZM118.072 133.215L118.067 134.001L116.051 133.988L116.01 140.599L115.044 140.593L115.086 133.982L113.059 133.969L113.064 133.184L118.072 133.215ZM123.217 138.999L119.991 138.979L119.387 140.62L118.368 140.614L121.088 133.277L122.203 133.284L124.82 140.654L123.801 140.648L123.217 138.999ZM122.946 138.212L121.633 134.469L120.272 138.195L122.946 138.212ZM133.8 133.315L133.753 140.711L132.788 140.705L132.809 137.351L129.042 137.328L129.021 140.681L128.055 140.675L128.102 133.279L129.068 133.285L129.047 136.532L132.814 136.556L132.835 133.309L133.8 133.315ZM136.03 134.114L136.015 136.586L138.71 136.603L138.705 137.399L136.01 137.382L135.994 139.929L139.007 139.948L139.002 140.744L135.023 140.719L135.07 133.312L139.049 133.337L139.044 134.133L136.03 134.114ZM143.978 140.775L142.236 137.74L141.069 137.733L141.049 140.757L140.084 140.751L140.131 133.355L142.518 133.37C143.077 133.373 143.547 133.472 143.928 133.665C144.315 133.859 144.604 134.119 144.793 134.445C144.982 134.772 145.075 135.144 145.072 135.561C145.069 136.071 144.918 136.519 144.618 136.906C144.326 137.293 143.885 137.549 143.297 137.672L145.135 140.782L143.978 140.775ZM141.073 136.958L142.495 136.967C143.019 136.97 143.412 136.845 143.676 136.592C143.939 136.332 144.072 135.986 144.075 135.555C144.078 135.116 143.949 134.776 143.689 134.534C143.435 134.292 143.044 134.169 142.513 134.166L141.091 134.157L141.073 136.958ZM147.168 134.184L147.152 136.657L149.847 136.674L149.842 137.47L147.147 137.453L147.131 139.999L150.145 140.018L150.139 140.814L146.16 140.789L146.207 133.382L150.186 133.407L150.181 134.203L147.168 134.184Z" fill="white"/>
<path d="M67.7405 147.059L67.8394 146.588C67.5334 146.522 67.2322 146.452 66.931 146.372L66.8133 146.842C67.1334 146.922 67.4299 146.993 67.7405 147.059Z" fill="#263238"/>
<path d="M64.9918 146.301L65.1424 145.858C64.554 145.656 63.9657 145.435 63.3962 145.195L63.2126 145.628C63.7916 145.873 64.3893 146.098 64.9918 146.301ZM61.4853 144.799L61.6971 144.385C61.1465 144.098 60.5958 143.788 60.0733 143.444L59.8286 143.844C60.3651 144.216 60.9252 144.531 61.4853 144.799ZM58.2472 142.809L58.5249 142.427C58.0166 142.055 57.5271 141.665 57.0658 141.265L56.7552 141.618C57.2494 142.046 57.72 142.446 58.2519 142.827L58.2472 142.809ZM55.3761 140.305L55.7197 139.98C55.2867 139.509 54.8772 139.039 54.5007 138.568L54.1289 138.855C54.5195 139.373 54.9384 139.857 55.3667 140.323L55.3761 140.305ZM53.0464 137.292L53.4464 137.043C53.1211 136.517 52.8318 135.97 52.5804 135.405L52.1474 135.598C52.4135 136.187 52.7153 136.759 53.0511 137.311L53.0464 137.292ZM51.4885 133.8L51.9591 133.668C51.7872 133.078 51.6598 132.475 51.5779 131.866L51.1072 131.927C51.1852 132.567 51.3143 133.2 51.4932 133.819L51.4885 133.8ZM50.9661 130.035H51.4367V129.898C51.4367 129.329 51.4697 128.75 51.5261 128.18L51.0555 128.133C50.9936 128.72 50.9622 129.309 50.9613 129.898L50.9661 130.035ZM51.8132 126.35C51.9399 125.743 52.097 125.143 52.2839 124.552L51.8132 124.41C51.6203 125.022 51.4555 125.644 51.3426 126.251L51.8132 126.35ZM52.9287 122.805C53.1546 122.25 53.3994 121.681 53.7006 121.106L53.277 120.895C52.9899 121.478 52.7263 122.062 52.4957 122.627L52.9287 122.805ZM54.576 119.45C54.8678 118.937 55.1879 118.395 55.5173 117.84L55.1173 117.591C54.7737 118.151 54.4489 118.697 54.1759 119.219L54.576 119.45ZM56.5434 116.254C56.887 115.736 57.2352 115.214 57.5929 114.691L57.2023 114.428C56.8446 114.95 56.4963 115.473 56.1527 116L56.5434 116.254ZM58.6614 113.138C59.0143 112.62 59.3721 112.098 59.7203 111.58L59.3297 111.317C58.9814 111.834 58.6284 112.357 58.2754 112.87L58.6614 113.138ZM60.7652 110.003C61.1088 109.476 61.443 108.94 61.7724 108.403L61.3724 108.158C61.0429 108.695 60.7087 109.222 60.3699 109.749L60.7652 110.003ZM62.7279 106.77C63.0479 106.201 63.3444 105.636 63.6127 105.094L63.1891 104.883C62.9255 105.419 62.629 105.975 62.3184 106.539L62.7279 106.77ZM64.3987 103.381C64.6482 102.793 64.8694 102.195 65.0765 101.612L64.6058 101.461C64.4081 102.03 64.1869 102.619 63.9422 103.198L64.3987 103.381ZM65.6224 99.7901C65.7777 99.1782 65.9142 98.5523 66.0178 97.9075L65.5471 97.8322C65.4436 98.4346 65.3165 99.0465 65.1612 99.6489L65.6224 99.7901ZM66.2531 96.0248C66.3002 95.4459 66.3237 94.8623 66.3237 94.2787V94.1233H65.8531V94.274C65.8531 94.8435 65.8531 95.4177 65.7825 95.9825L66.2531 96.0248ZM65.7825 92.2595L66.2531 92.2125C66.2531 92.0854 66.2296 91.9536 66.2155 91.8171C66.159 91.3135 66.0884 90.8099 66.0037 90.3298L65.533 90.4098C65.613 90.8805 65.6836 91.3747 65.7401 91.8689C65.7213 92.0148 65.7213 92.1419 65.7589 92.2736L65.7825 92.2595ZM65.1282 88.5978L65.5989 88.4707C65.4247 87.8494 65.2224 87.2423 64.9965 86.6634L64.5588 86.8328C64.7727 87.4156 64.9549 88.0095 65.1047 88.6119L65.1282 88.5978ZM41.6752 85.8538C41.9388 85.8538 42.2117 85.8162 42.48 85.7785C42.8471 85.7268 43.2143 85.6656 43.5767 85.595L43.4825 85.1243C43.1342 85.1902 42.7718 85.2514 42.4141 85.3032C42.16 85.3361 41.9011 85.3596 41.6517 85.3738L41.6752 85.8538ZM39.7408 85.7079L39.8396 85.2373C39.2489 85.1153 38.6826 84.8958 38.1641 84.5878L37.9193 84.9878C38.4736 85.3309 39.0813 85.579 39.7172 85.722L39.7408 85.7079ZM63.7727 85.1478L64.1916 84.9266C63.8919 84.3653 63.5603 83.8216 63.1985 83.2981L62.8126 83.5664C63.1565 84.079 63.4693 84.6118 63.7492 85.162L63.7727 85.1478ZM45.4169 85.1196C46.0245 84.9269 46.6215 84.7022 47.2054 84.4466L47.0125 84.0135C46.4467 84.2649 45.8668 84.4834 45.2757 84.6678L45.4169 85.1196ZM36.4744 83.6511L36.865 83.3876C36.5299 82.9014 36.3316 82.3341 36.2908 81.745L35.8202 81.7779C35.8601 82.4531 36.0813 83.105 36.4603 83.6653L36.4744 83.6511ZM48.8998 83.5805C49.4506 83.2604 49.9833 82.91 50.4954 82.531L50.2177 82.1544C49.7193 82.522 49.2008 82.8614 48.6645 83.1711L48.8998 83.5805ZM61.6548 82.1121L62.003 81.7967C61.5769 81.3228 61.1227 80.8748 60.6428 80.4553L60.3322 80.8083C60.7939 81.2215 61.2308 81.6615 61.6406 82.1262L61.6548 82.1121ZM51.9639 81.3167C52.4326 80.8848 52.8772 80.4276 53.2958 79.947L52.9428 79.6364C52.5355 80.1032 52.1034 80.5478 51.6485 80.9684L51.9639 81.3167ZM36.6438 80.0412C36.9135 79.5033 37.2861 79.0236 37.7405 78.6292L37.4298 78.2762C36.9298 78.7088 36.5189 79.2347 36.2202 79.8247L36.6438 80.0412ZM58.8684 79.6693L59.1367 79.2834C58.6101 78.9239 58.065 78.5924 57.5035 78.2903L57.2823 78.7045C57.823 79.0033 58.3477 79.33 58.8543 79.6835L58.8684 79.6693ZM54.4725 78.4456C54.6513 78.1915 54.8255 77.9326 54.9902 77.6643L55.6021 77.9044L55.7809 77.4714L55.2396 77.2549C55.3244 77.1137 55.4091 76.9725 55.4891 76.8313L55.0796 76.6006C54.9855 76.7654 54.8914 76.9301 54.7925 77.0713C54.529 76.9772 54.2607 76.8877 53.9877 76.803L53.8512 77.2737C54.0818 77.3443 54.3219 77.4196 54.5384 77.4996C54.3925 77.7302 54.2418 77.9703 54.0677 78.1726L54.4725 78.4456ZM39.256 77.6361C39.7114 77.4091 40.1834 77.2172 40.668 77.0619L40.9786 76.963L40.8421 76.4924L40.5221 76.5959C40.0178 76.7566 39.5268 76.9565 39.0536 77.1937L39.256 77.6361ZM52.0486 76.7936L52.1474 76.3229C51.5402 76.1864 50.9096 76.0735 50.2647 75.9841L50.1942 76.4547C50.8154 76.5536 51.432 76.6712 52.0344 76.8077L52.0486 76.7936ZM42.7765 76.5394C43.3649 76.4359 43.9861 76.3559 44.6215 76.2994L44.5839 75.8288C43.9297 75.8852 43.2943 75.9652 42.7012 76.0735L42.7765 76.5394ZM48.3539 76.2665L48.3868 75.7958C47.8267 75.7629 47.2666 75.744 46.7113 75.744H46.4806V76.2147H46.7065C47.2384 76.2288 47.7938 76.2429 48.3398 76.2806L48.3539 76.2665ZM56.308 75.1416C56.5622 74.5674 56.7787 73.9696 56.9905 73.3625L56.5199 73.2166C56.3222 73.8096 56.1009 74.3932 55.8562 74.9533L56.308 75.1416ZM57.4988 71.5269C57.64 70.9198 57.7577 70.2891 57.8471 69.6443L57.3765 69.5784C57.287 70.1996 57.1741 70.8162 57.0376 71.4139L57.4988 71.5269ZM58.026 67.7616C58.0495 67.338 58.0636 66.905 58.0636 66.472C58.0636 66.2696 58.0636 66.0625 58.0636 65.8601H57.5929C57.5929 66.0625 57.5929 66.2602 57.5929 66.4626C57.5929 66.8862 57.5929 67.3145 57.56 67.724L58.026 67.7616ZM57.4659 63.9963L57.9365 63.9493C57.8707 63.328 57.7812 62.6926 57.673 62.0666L57.2023 62.1466C57.3294 62.7726 57.4188 63.375 57.48 64.0057L57.4659 63.9963ZM56.8211 60.3205L57.2917 60.2075C57.1411 59.6004 56.967 58.9885 56.774 58.3766L56.3033 58.5225C56.5151 59.1391 56.6893 59.7368 56.8352 60.3299L56.8211 60.3205ZM55.6915 56.7576L56.1292 56.5881C55.8986 55.9998 55.6585 55.4115 55.3714 54.842L54.9478 55.0491C55.2302 55.6138 55.4797 56.1881 55.7056 56.7858L55.6915 56.7576ZM54.0724 53.4017L54.4819 53.1617C54.1618 52.6204 53.8183 52.0792 53.4606 51.5615L53.0746 51.8297C53.4417 52.3475 53.7759 52.8746 54.0865 53.4112L54.0724 53.4017ZM51.9497 50.3377L52.3169 50.0412C51.9215 49.5706 51.4979 49.0717 51.0602 48.6292L50.7213 48.954C51.1637 49.3964 51.5779 49.8671 51.9639 50.3471L51.9497 50.3377ZM49.3893 47.6267L49.7047 47.2784C49.234 46.8596 48.7634 46.4454 48.2598 46.0453L47.9679 46.4171C48.4716 46.8172 48.9516 47.2267 49.4035 47.6361L49.3893 47.6267ZM46.4665 45.3017L46.7348 44.911C46.2218 44.558 45.6852 44.2097 45.1393 43.8803L44.8992 44.2803C45.4452 44.6145 45.9535 44.9581 46.4806 45.3111L46.4665 45.3017ZM43.2707 43.3578L43.492 42.9436C42.9366 42.6471 42.3624 42.3647 41.7882 42.1012L41.5905 42.5295C42.1882 42.7977 42.7389 43.0801 43.2849 43.3672L43.2707 43.3578ZM39.8679 41.7952L40.042 41.3528C39.449 41.1222 38.8512 40.8822 38.2582 40.708L38.1076 41.1787C38.7053 41.3575 39.2983 41.574 39.882 41.8046L39.8679 41.7952Z" fill="#263238"/>
<path d="M36.2393 40.6046L36.3569 40.134C35.7733 39.9834 35.4156 39.9175 35.4156 39.9175L35.3309 40.3881C35.3309 40.3881 35.6698 40.4587 36.2393 40.6046Z" fill="#263238"/>
<path d="M27.9179 37.5642C29.1181 33.846 37.157 35.1827 35.5897 40.0446C34.0224 44.9065 26.7177 41.2871 27.9179 37.5642Z" fill="#263238"/>
<path d="M39.9621 36.0768C39.9009 34.4436 37.6323 33.1869 34.4224 33.7658C31.2125 34.3447 28.1956 36.5098 28.1956 36.5098C28.1956 36.5098 31.3631 38.4301 34.606 38.7831C37.8488 39.1361 40.0233 37.7053 39.9621 36.0768Z" fill="#EBEBEB"/>
<path d="M28.1956 36.5004C29.8617 36.5004 31.5232 36.4534 33.1846 36.4016C34.846 36.3498 36.5122 36.2651 38.1736 36.1333C36.5074 36.1333 34.8413 36.1757 33.1799 36.2274C31.5184 36.2792 29.8523 36.3639 28.1956 36.5004Z" fill="#263238"/>
<path d="M36.7378 34.6221C35.792 35.0746 34.9 35.6319 34.0786 36.2835C34.5519 36.0614 35.0109 35.8099 35.4529 35.5304C35.8985 35.2529 36.3276 34.9496 36.7378 34.6221Z" fill="#263238"/>
<path d="M32.3751 36.3447C33.2264 37.0348 34.1495 37.6312 35.1284 38.1238C34.2726 37.4329 33.3448 36.8364 32.3609 36.3447H32.3751Z" fill="#263238"/>
<path d="M31.8901 35.4272C31.4151 35.6553 30.9995 35.9904 30.6758 36.4062C30.9133 36.2941 31.1361 36.1535 31.3395 35.9873C31.5438 35.8222 31.7285 35.6343 31.8901 35.4272Z" fill="#263238"/>
<path d="M36.9027 45.7492C35.9002 47.0388 33.3257 46.7282 31.0618 44.3843C28.7979 42.0404 27.5977 38.5151 27.5977 38.5151C27.5977 38.5151 31.3065 38.7975 34.1352 40.3978C36.9639 41.998 37.9099 44.4549 36.9027 45.7492Z" fill="#EBEBEB"/>
<path d="M27.5977 38.5151C28.9532 39.4565 30.271 40.5013 31.5936 41.5132C32.9162 42.5252 34.2105 43.57 35.4766 44.6479C34.1211 43.7065 32.8032 42.6664 31.4854 41.6544C30.1675 40.6425 28.8826 39.5977 27.5977 38.5151Z" fill="#263238"/>
<path d="M33.4436 45.0194C33.192 44.5622 32.9673 44.0907 32.7706 43.6074C32.5703 43.1227 32.4005 42.626 32.2622 42.1201C32.5146 42.5769 32.7394 43.0484 32.9353 43.5321C33.1337 44.0175 33.3034 44.5141 33.4436 45.0194Z" fill="#263238"/>
<path d="M30.8924 41.0847C31.9937 41.0258 33.0981 41.0842 34.187 41.2588C33.6384 41.2918 33.0883 41.2918 32.5397 41.2588C31.9877 41.2319 31.4378 41.1738 30.8924 41.0847Z" fill="#263238"/>
<path d="M29.9841 41.5504C29.8584 41.3179 29.7604 41.0715 29.6923 40.8161C29.6227 40.5627 29.5816 40.3022 29.5699 40.0396C29.8202 40.5055 29.9618 41.022 29.9841 41.5504Z" fill="#263238"/>
<path d="M27.9178 37.564C28.1836 37.6503 28.4691 37.6558 28.738 37.5798C29.0069 37.5038 29.2472 37.3497 29.4285 37.1369C29.6098 36.9242 29.7239 36.6625 29.7563 36.385C29.7888 36.1074 29.7381 35.8264 29.6107 35.5776C29.4834 35.3289 29.2851 35.1235 29.0409 34.9875C28.7968 34.8515 28.5177 34.791 28.2392 34.8137C27.9607 34.8364 27.6951 34.9413 27.4762 35.115C27.2573 35.2887 27.0948 35.5235 27.0094 35.7896C26.8953 36.1454 26.9268 36.5319 27.097 36.8645C27.2673 37.1971 27.5624 37.4486 27.9178 37.564Z" fill="#455A64"/>
<path d="M27.0517 40.2515C27.3174 40.3374 27.6026 40.3427 27.8712 40.2666C28.1399 40.1905 28.3799 40.0365 28.5611 39.824C28.7422 39.6115 28.8562 39.35 28.8888 39.0727C28.9214 38.7954 28.871 38.5147 28.744 38.266C28.617 38.0173 28.4192 37.8119 28.1755 37.6756C27.9317 37.5394 27.6531 37.4784 27.3747 37.5005C27.0964 37.5226 26.8309 37.6267 26.6117 37.7997C26.3925 37.9727 26.2295 38.2068 26.1433 38.4724C26.0861 38.6488 26.0642 38.8348 26.0789 39.0198C26.0936 39.2047 26.1445 39.3849 26.2289 39.5502C26.3133 39.7154 26.4293 39.8624 26.5705 39.9827C26.7117 40.103 26.8752 40.1944 27.0517 40.2515Z" fill="#455A64"/>
</g>
<defs>
<clipPath id="clip0">
<rect width="255" height="182.293" fill="white" transform="translate(0 0.706543)"/>
</clipPath>
</defs>
</svg>
